<?xml version="1.0" encoding="UTF-8"?>
<svg id="Trace" xmlns="http://www.w3.org/2000/svg" viewBox="0 0 1388.74 833.65">
  <defs>
    <style>
      .cls-1 {
        fill: #707070;
      }

      .cls-2 {
        letter-spacing: 0em;
      }

      .cls-3 {
        font-family: Montserrat-Black, Montserrat;
        font-size: 32px;
        font-weight: 800;
      }

      .cls-3, .cls-4 {
        fill: #88c63c;
      }

      .cls-5 {
        font-size: 20px;
      }

      .cls-5, .cls-6 {
        font-family: Montserrat-Bold, Montserrat;
        font-weight: 700;
      }

      .cls-7 {
        letter-spacing: 0em;
      }

      .cls-8, .cls-9 {
        fill: none;
        stroke: #000;
        stroke-miterlimit: 10;
      }

      .cls-9 {
        stroke-width: 10px;
      }

      .cls-10 {
        letter-spacing: -.02em;
      }

      .cls-11 {
        letter-spacing: -.02em;
      }

      .cls-12 {
        letter-spacing: -.01em;
      }

      .cls-13 {
        letter-spacing: -.02em;
      }

      .cls-14 {
        letter-spacing: -.01em;
      }

      .cls-15 {
        letter-spacing: -.02em;
      }

      .cls-16 {
        letter-spacing: -.04em;
      }

      .cls-17 {
        letter-spacing: 0em;
      }

      .cls-18 {
        letter-spacing: 0em;
      }

      .cls-19 {
        letter-spacing: -.01em;
      }

      .cls-20 {
        letter-spacing: -.01em;
      }

      .cls-6 {
        font-size: 24px;
      }

      .cls-21 {
        letter-spacing: 0em;
      }

      .cls-22 {
        letter-spacing: 0em;
      }
    </style>
  </defs>
  <path class="cls-8" d="M1359.24,34.52s-24,73-36,108,60,20,44,58-28.71,52.97-45.36,19.99-.64-24.99-13.64-55.99-53,4-28,14,5,39-24,24-13-28-36-36-21,33-26-15-16-41-43-41,3,9,24,12,12,21-8,21-19,94,25,66,35-15,45,20,32-12,39,15-14,33-34,33,4,36-20,39-2-33-30-33-15,24-57,24-12-17-54-32-6-22-66-21-38,1-9,6,9,29,39,11,18,13-15,18-26-16-67-1-38-9-67-16-38-19-41-35-42-23-24-7,15,37,54,47,12,27,23,49,24,50,19-5,11-10,28-12,83-41,58,9-67,42-27,49,79-98,85-52,8,2,60,11,49,18,46,40,20-12,32-5-12.06,16.04,9.97,17.52-4.97-31.52,23.03-26.52-24.24,31.14,18.88,26.57c43.12-4.57-30.88-79.57,31.12-76.57s-32-33,10-39,2,102,11,122,12,72-23,73,12,52-17,48-28,106-17,121,19,33,6,36-23-33-26-6,26-2,15,28-12,89-43,73-3-32-29-55-38,31-48-2,7.61-54.25-33.2-75.12,11.8,35.14,0,49.63-14.8-6.51-17.8-25.51-10-49-20-26,25,24,11,35-26-11-26-31-15-47-50,13,3.14,121.41-37.43,119.7-20.57,72.3-20.57,72.3"/>
  <path class="cls-9" d="M22.74,590.81s285.5,45.71,331.5,10.71,120-11,194-4,48-34,184-9,63-41,220-15,93.5,47.63,164.25-6.18c70.75-53.82,14.75-240.82,14.75-240.82-9,61-275,92-383-14S22.74,98.4,22.74,98.4"/>
  <path class="cls-9" d="M179.66,827.7s31.58-80.18,82.58-116.18,61-132,39-149-126-106-85-157,32.42-157.28,29.71-219.14,31.71-72.07,0-111.96,0-70.83,0-70.83"/>
  <path class="cls-9" d="M1.44,386.87c31.19,9.35,143.81,17.65,178.23,5.43s45.48,0,45.48,0c0,0,78.47,15.9,102.79,42.56s48.32,82.66,75.32,82.66,94.69-89,142.85-83.5c48.15,5.5,78.15,48.5,116.15,48.5s96.74-87,138.37-56.5,150.85,15.5,148.24,0-29.58-45.91-29.58-45.91"/>
  <path class="cls-9" d="M1131.24,326.52s5-47,5-80-37-47-64-44-112-23-120-52-28-82-69-93-25,5-98-11-191,26-213,28-42,30-70-62"/>
  <circle class="cls-1" cx="1131.74" cy="333.02" r="25"/>
  <circle class="cls-1" cx="413.24" cy="549.52" r="12.5"/>
  <circle class="cls-1" cx="619.24" cy="208.52" r="12.5"/>
  <circle class="cls-1" cx="674.24" cy="517.52" r="12.5"/>
  <circle class="cls-1" cx="1052.24" cy="153.52" r="12.5"/>
  <circle class="cls-1" cx="397.24" cy="61.52" r="12.5"/>
  <text class="cls-6" transform="translate(1039.56 407.33)"><tspan x="0" y="0">S</tspan><tspan class="cls-14" x="15.31" y="0">y</tspan><tspan x="29.3" y="0">d</tspan><tspan class="cls-22" x="45.91" y="0">n</tspan><tspan x="62.59" y="0">ey</tspan></text>
  <text class="cls-5" transform="translate(993.87 131.57)"><tspan x="0" y="0">Chat</tspan><tspan class="cls-20" x="49.34" y="0">s</tspan><tspan class="cls-11" x="59.76" y="0">w</tspan><tspan class="cls-7" x="78.2" y="0">ood</tspan></text>
  <text class="cls-5" transform="translate(558.64 186.86)"><tspan class="cls-12" x="0" y="0">P</tspan><tspan x="14.34" y="0">a</tspan><tspan class="cls-18" x="26.68" y="0">r</tspan><tspan class="cls-16" x="35.22" y="0">r</tspan><tspan x="43.06" y="0">ama</tspan><tspan class="cls-19" x="88.72" y="0">t</tspan><tspan class="cls-10" x="97.18" y="0">t</tspan><tspan x="105.52" y="0">a</tspan></text>
  <text class="cls-5" transform="translate(343.64 101.86)"><tspan x="0" y="0">Bl</tspan><tspan class="cls-21" x="21.32" y="0">a</tspan><tspan class="cls-17" x="33.74" y="0">c</tspan><tspan x="45.48" y="0">k</tspan><tspan class="cls-15" x="58.58" y="0">t</tspan><tspan class="cls-12" x="66.94" y="0">o</tspan><tspan x="79.74" y="0">wn</tspan></text>
  <text class="cls-5" transform="translate(435.64 555.86)"><tspan x="0" y="0">Li</tspan><tspan class="cls-12" x="18.1" y="0">v</tspan><tspan x="29.76" y="0">e</tspan><tspan class="cls-18" x="42.38" y="0">r</tspan><tspan class="cls-2" x="50.92" y="0">pool</tspan></text>
  <text class="cls-5" transform="translate(699.64 523.86)"><tspan x="0" y="0">Ban</tspan><tspan class="cls-13" x="41.46" y="0">k</tspan><tspan class="cls-2" x="54.2" y="0">s</tspan><tspan class="cls-15" x="64.82" y="0">t</tspan><tspan class="cls-12" x="73.18" y="0">o</tspan><tspan x="85.98" y="0">wn</tspan></text>
  <text class="cls-3" transform="translate(317.72 758.19)"><tspan x="0" y="0">ONTIME</tspan></text>
  <circle class="cls-4" cx="280.74" cy="746.02" r="25"/>
</svg>